<?xml version="1.0" standalone="no"?>
<!DOCTYPE svg PUBLIC "-//W3C//DTD SVG 20010904//EN"
 "http://www.w3.org/TR/2001/REC-SVG-20010904/DTD/svg10.dtd">
<svg version="1.0" xmlns="http://www.w3.org/2000/svg"
 width="1024.000000pt" height="900.000000pt" viewBox="0 0 1024.000000 900.000000"
 preserveAspectRatio="xMidYMid meet">

<g transform="translate(0.000000,900.000000) scale(0.100000,-0.100000)"
fill="#000000" stroke="none">
<path d="M3240 8607 c-3 -2 -171 -7 -375 -11 -1098 -19 -1550 -92 -1870 -300
-109 -71 -208 -165 -287 -271 -95 -127 -149 -248 -197 -442 -68 -274 -88 -503
-106 -1203 -2 -74 -4 -745 -4 -1490 -1 -1739 15 -2767 50 -3090 31 -294 96
-548 189 -745 140 -297 394 -499 734 -585 246 -62 296 -65 1221 -65 935 0
3063 14 3083 21 7 2 556 5 1220 5 664 1 1322 5 1462 10 617 18 872 87 1092
297 196 187 292 427 343 852 45 385 63 1504 45 2800 -38 2723 -36 2617 -61
2875 -38 398 -109 633 -244 815 -48 65 -160 172 -227 216 -399 266 -878 300
-4298 310 -971 3 -1767 4 -1770 1z m3815 -226 c1143 -28 1566 -58 1860 -132
174 -44 288 -111 404 -235 176 -189 253 -488 281 -1089 14 -330 29 -1085 40
-2115 27 -2474 2 -3225 -117 -3605 -77 -244 -235 -427 -442 -510 -82 -33 -252
-73 -366 -85 -177 -19 -701 -30 -1500 -30 -429 0 -1268 -5 -1865 -10 -1599
-14 -3476 -15 -3635 0 -321 28 -527 105 -685 256 -184 176 -303 441 -354 789
-51 345 -60 789 -61 2885 0 1876 6 2267 40 2620 32 339 87 541 196 720 67 110
197 238 307 303 97 57 257 119 362 141 271 55 834 89 1760 106 594 11 3223 4
3775 -9z"/>
<path d="M7075 5426 c-183 -36 -343 -123 -471 -257 -149 -157 -229 -331 -255
-551 -24 -202 27 -432 135 -616 68 -116 211 -260 319 -321 223 -126 477 -155
701 -81 239 80 410 231 527 465 75 151 102 267 102 440 0 259 -65 448 -217
628 -97 115 -297 234 -466 277 -108 28 -279 35 -375 16z m-187 -357 c83 -41
140 -145 129 -240 -12 -99 -84 -185 -178 -213 -65 -20 -73 -20 -138 0 -141 41
-210 196 -147 329 27 60 102 129 154 144 49 13 127 5 180 -20z"/>
<path d="M2730 5414 c-406 -48 -714 -344 -785 -753 -75 -426 134 -851 510
-1037 132 -65 224 -86 375 -87 109 -1 137 2 220 27 229 67 414 199 539 384
185 274 209 667 59 967 -121 241 -360 421 -638 480 -72 15 -225 25 -280 19z
m-265 -343 c54 -24 119 -100 135 -156 16 -56 8 -130 -19 -183 -56 -110 -208
-162 -321 -111 -58 26 -87 53 -116 111 -63 123 -4 289 121 344 45 20 152 17
200 -5z"/>
<path d="M6153 3725 c-37 -16 -52 -42 -94 -163 -136 -384 -401 -595 -807 -642
-309 -36 -662 92 -871 316 -81 86 -139 193 -170 314 -31 119 -97 155 -163 89
-29 -29 -30 -33 -26 -97 10 -136 88 -284 218 -412 264 -263 701 -412 1083
-371 281 31 494 126 668 300 88 88 138 160 202 288 82 162 119 262 112 299 -6
33 -54 84 -80 84 -7 0 -19 2 -27 5 -7 2 -27 -2 -45 -10z"/>
<path d="M2440 3596 c0 -2 8 -10 18 -17 15 -13 16 -12 3 4 -13 16 -21 21 -21
13z"/>
<path d="M7286 3531 c-3 -4 9 -7 26 -5 42 5 49 14 10 14 -17 0 -33 -4 -36 -9z"/>
</g>
</svg>
